<svg width="21" height="27" viewBox="0 0 21 27" fill="none" xmlns="http://www.w3.org/2000/svg">
<path d="M11.1893 3.15421C12.8046 0.984698 15.0502 0.974121 15.0502 0.974121C15.0502 0.974121 15.3842 3.01384 13.7795 4.97873C12.0661 7.0768 10.1186 6.73349 10.1186 6.73349C10.1186 6.73349 9.7529 5.08343 11.1893 3.15421ZM10.324 8.1623C11.155 8.1623 12.6973 6.99828 14.7047 6.99828C18.1602 6.99828 19.5196 9.50391 19.5196 9.50391C19.5196 9.50391 16.8609 10.8891 16.8609 14.2503C16.8609 18.042 20.1729 19.3488 20.1729 19.3488C20.1729 19.3488 17.8577 25.9894 14.7304 25.9894C13.2941 25.9894 12.1775 25.0031 10.6641 25.0031C9.12183 25.0031 7.59137 26.0262 6.59456 26.0262C3.73892 26.0263 0.131256 19.727 0.131256 14.6634C0.131256 9.68149 3.18491 7.06808 6.04911 7.06808C7.9111 7.06808 9.35602 8.1623 10.324 8.1623Z" fill="white"/>
</svg>
