<svg width="25" height="31" viewBox="0 0 25 31" fill="none" xmlns="http://www.w3.org/2000/svg">
<path d="M13.7938 2.6977C15.8087 0.013088 18.6099 0 18.6099 0C18.6099 0 19.0266 2.52399 17.0249 4.95539C14.8876 7.55159 12.4582 7.12677 12.4582 7.12677C12.4582 7.12677 12.002 5.08495 13.7938 2.6977ZM12.7145 8.89481C13.751 8.89481 15.6749 7.45443 18.179 7.45443C22.4893 7.45443 24.185 10.5549 24.185 10.5549C24.185 10.5549 20.8686 12.2691 20.8686 16.4283C20.8686 21.1202 25 22.7372 25 22.7372C25 22.7372 22.112 30.9545 18.2111 30.9545C16.4194 30.9545 15.0264 29.7339 13.1387 29.7339C11.2148 29.7339 9.30575 31 8.06234 31C4.50021 31.0001 0 23.2052 0 16.9394C0 10.7747 3.80913 7.5408 7.38194 7.5408C9.70459 7.5408 11.507 8.89481 12.7145 8.89481Z" fill="black"/>
</svg>
