<svg width="1440" height="546" viewBox="0 0 1440 546" fill="none" xmlns="http://www.w3.org/2000/svg">
<circle cx="1169" cy="-11" r="125" fill="#4DD32C"/>
<circle cx="1015" cy="206" r="125" fill="#153F0A"/>
<circle cx="84.0001" cy="303" r="125" fill="#153F0A"/>
<path d="M162 501C162 570.036 106.036 626 37.0001 626C-32.0355 626 -87.9999 570.036 -87.9999 501C-87.9999 431.964 -32.0355 376 37.0001 376C106.036 376 162 431.964 162 501Z" fill="#32FF00"/>
<path d="M1422 289C1422 358.036 1366.04 414 1297 414C1227.96 414 1172 358.036 1172 289C1172 219.964 1227.96 164 1297 164C1366.04 164 1422 219.964 1422 289Z" fill="#32FF00"/>
<path d="M635 312C635 381.036 579.036 437 510 437C440.964 437 385 381.036 385 312C385 242.964 440.964 187 510 187C579.036 187 635 242.964 635 312Z" fill="#32FF00"/>
<path d="M1895 100C1895 169.036 1839.04 225 1770 225C1700.96 225 1645 169.036 1645 100C1645 30.9644 1700.96 -25 1770 -25C1839.04 -25 1895 30.9644 1895 100Z" fill="#32FF00"/>
</svg>
