<svg width="28" height="17" viewBox="0 0 28 17" fill="none" xmlns="http://www.w3.org/2000/svg">
<path d="M22.4338 2.44835H12.4632V10.1725H2.49265V0.241455H0V16.7932H2.49265V13.4828H24.9265V16.7932H27.4191V6.86214C27.4191 5.69153 26.8939 4.56887 25.959 3.74112C25.024 2.91337 23.756 2.44835 22.4338 2.44835ZM7.47794 9.06904C8.46958 9.06904 9.4206 8.72027 10.1218 8.09946C10.823 7.47865 11.2169 6.63665 11.2169 5.7587C11.2169 4.88074 10.823 4.03874 10.1218 3.41793C9.4206 2.79712 8.46958 2.44835 7.47794 2.44835C6.4863 2.44835 5.53528 2.79712 4.83409 3.41793C4.1329 4.03874 3.73897 4.88074 3.73897 5.7587C3.73897 6.63665 4.1329 7.47865 4.83409 8.09946C5.53528 8.72027 6.4863 9.06904 7.47794 9.06904Z" fill="black"/>
</svg>
