<svg width="20" height="20" viewBox="0 0 20 20" fill="none" xmlns="http://www.w3.org/2000/svg">
<path d="M0.833313 10.0001C0.833313 6.54333 0.833313 4.8145 1.90765 3.74108C2.98198 2.66766 4.7099 2.66675 8.16665 2.66675H11.8333C15.2901 2.66675 17.0189 2.66675 18.0923 3.74108C19.1657 4.81541 19.1666 6.54333 19.1666 10.0001V11.8334C19.1666 15.2902 19.1666 17.019 18.0923 18.0924C17.018 19.1658 15.2901 19.1667 11.8333 19.1667H8.16665C4.7099 19.1667 2.98106 19.1667 1.90765 18.0924C0.83423 17.0181 0.833313 15.2902 0.833313 11.8334V10.0001Z" stroke="#333333" stroke-width="1.5"/>
<path opacity="0.5" d="M5.41663 2.66675V1.29175M14.5833 2.66675V1.29175M1.29163 7.25008H18.7083" stroke="#333333" stroke-width="1.5" stroke-linecap="round"/>
<path d="M5.41699 14.167C5.49959 14.1671 5.57969 14.1913 5.64746 14.2363L5.71094 14.2891C5.789 14.3671 5.83292 14.4726 5.83301 14.583C5.83301 14.6658 5.8089 14.7465 5.76367 14.8145L5.71094 14.8779C5.63289 14.9559 5.52731 14.9999 5.41699 15C5.30648 15 5.20021 14.9561 5.12207 14.8779C5.04393 14.7998 5 14.6935 5 14.583C5.00009 14.4727 5.04411 14.3671 5.12207 14.2891C5.20021 14.2109 5.30648 14.167 5.41699 14.167ZM10 14.167C10.0829 14.167 10.1635 14.191 10.2314 14.2363L10.2949 14.2891C10.3728 14.3671 10.4169 14.4728 10.417 14.583C10.417 14.6659 10.392 14.7465 10.3467 14.8145L10.2949 14.8779C10.2168 14.9561 10.1105 15 10 15C9.88949 15 9.78322 14.9561 9.70508 14.8779C9.62704 14.7998 9.58301 14.6934 9.58301 14.583C9.58309 14.4728 9.62722 14.3671 9.70508 14.2891C9.78322 14.2109 9.88949 14.167 10 14.167ZM14.583 14.167C14.6935 14.167 14.7998 14.2109 14.8779 14.2891C14.9559 14.3671 14.9999 14.4727 15 14.583C15 14.6935 14.9561 14.7998 14.8779 14.8779C14.7998 14.9561 14.6935 15 14.583 15C14.4727 14.9999 14.3671 14.9559 14.2891 14.8779C14.2109 14.7998 14.167 14.6935 14.167 14.583C14.1671 14.4726 14.211 14.3671 14.2891 14.2891C14.3671 14.211 14.4726 14.1671 14.583 14.167ZM5.41699 10.5C5.49971 10.5001 5.57962 10.5251 5.64746 10.5703L5.71094 10.6221C5.78908 10.7002 5.83301 10.8065 5.83301 10.917C5.83294 10.9996 5.80875 11.0797 5.76367 11.1475L5.71094 11.2109C5.63287 11.289 5.52738 11.3329 5.41699 11.333C5.33419 11.333 5.25346 11.3089 5.18555 11.2637L5.12207 11.2109C5.04411 11.1329 5.00009 11.0273 5 10.917C5 10.8065 5.04393 10.7002 5.12207 10.6221C5.20021 10.5439 5.30649 10.5 5.41699 10.5ZM10 10.5C10.083 10.5 10.1634 10.5249 10.2314 10.5703L10.2949 10.6221C10.373 10.7002 10.417 10.8066 10.417 10.917C10.4169 10.9996 10.3918 11.0797 10.3467 11.1475L10.2949 11.2109C10.2168 11.2891 10.1105 11.333 10 11.333C9.91711 11.333 9.83651 11.309 9.76855 11.2637L9.70508 11.2109C9.62722 11.1329 9.58309 11.0272 9.58301 10.917C9.58301 10.8066 9.62704 10.7002 9.70508 10.6221C9.78322 10.5439 9.88949 10.5 10 10.5ZM14.583 10.5C14.6935 10.5 14.7998 10.5439 14.8779 10.6221C14.9561 10.7002 15 10.8065 15 10.917C14.9999 10.9997 14.9749 11.0796 14.9297 11.1475L14.8779 11.2109C14.7998 11.2891 14.6935 11.333 14.583 11.333C14.5004 11.3329 14.4203 11.3087 14.3525 11.2637L14.2891 11.2109C14.211 11.1329 14.1671 11.0274 14.167 10.917C14.167 10.8065 14.2109 10.7002 14.2891 10.6221C14.3671 10.5441 14.4727 10.5001 14.583 10.5Z" fill="black" stroke="#333333"/>
</svg>
