<svg width="19" height="16" viewBox="0 0 19 16" fill="none" xmlns="http://www.w3.org/2000/svg">
<path d="M15.582 6H11.8718L8.46002 0.251875C8.41453 0.175337 8.34884 0.111731 8.2696 0.0674996C8.19036 0.0232678 8.10038 -1.82962e-05 8.00879 1.07861e-08H5.88248C5.5374 1.07861e-08 5.28841 0.317812 5.3832 0.637187L6.97485 6H3.63574L2.23335 4.2C2.13531 4.07406 1.98111 4 1.81782 4H0.519642C0.181705 4 -0.06631 4.30562 0.0158206 4.62125L1.03872 8L0.0158206 11.3787C-0.06631 11.6944 0.181705 12 0.519642 12H1.81782C1.98144 12 2.13531 11.9259 2.23335 11.8L3.63574 10H6.97485L5.3832 15.3625C5.28841 15.6819 5.5374 16 5.88248 16H8.00879C8.19512 16 8.36717 15.9038 8.45969 15.7481L11.8718 10H15.582C16.7296 10 18.6984 9.10469 18.6984 8C18.6984 6.89531 16.7296 6 15.582 6Z" fill="black"/>
</svg>
